<mxfile host="app.diagrams.net" modified="2021-05-13T10:24:14.763Z" agent="5.0 (Windows NT 10.0; Win64; x64) AppleWebKit/537.36 (KHTML, like Gecko) Chrome/90.0.4430.212 Safari/537.36" etag="AyO3tQLsnPqCRuNpzUis" version="14.1.2" type="github">
  <diagram id="gUxt7FaEf-Kk89n041io" name="Page-1">
    <mxGraphModel dx="1422" dy="762" grid="1" gridSize="10" guides="1" tooltips="1" connect="1" arrows="1" fold="1" page="1" pageScale="1" pageWidth="827" pageHeight="1169" math="0" shadow="0">
      <root>
        <mxCell id="0" />
        <mxCell id="1" parent="0" />
        <mxCell id="G0XDKm17rJ_6QTCPzixr-4" style="edgeStyle=orthogonalEdgeStyle;rounded=0;orthogonalLoop=1;jettySize=auto;html=1;exitX=0.5;exitY=1;exitDx=0;exitDy=0;entryX=0.5;entryY=0;entryDx=0;entryDy=0;" edge="1" parent="1" source="G0XDKm17rJ_6QTCPzixr-1" target="G0XDKm17rJ_6QTCPzixr-2">
          <mxGeometry relative="1" as="geometry" />
        </mxCell>
        <mxCell id="G0XDKm17rJ_6QTCPzixr-1" value="&lt;font style=&quot;font-size: 14px&quot;&gt;&lt;b&gt;开始&lt;/b&gt;&lt;/font&gt;" style="rounded=1;whiteSpace=wrap;html=1;" vertex="1" parent="1">
          <mxGeometry x="140" y="40" width="80" height="40" as="geometry" />
        </mxCell>
        <mxCell id="G0XDKm17rJ_6QTCPzixr-2" value="&lt;font style=&quot;font-size: 14px&quot;&gt;&lt;b&gt;查询当日反向积分数据&lt;/b&gt;&lt;br&gt;&lt;span style=&quot;color: rgb(51 , 51 , 51) ; font-family: &amp;#34;arial normal&amp;#34; , &amp;#34;arial&amp;#34;&quot;&gt;[置为无效、退款扣减、调账]&lt;/span&gt;&lt;/font&gt;" style="rounded=0;whiteSpace=wrap;html=1;align=center;" vertex="1" parent="1">
          <mxGeometry x="80" y="120" width="200" height="40" as="geometry" />
        </mxCell>
      </root>
    </mxGraphModel>
  </diagram>
</mxfile>
